# xmcd CD database file
#
# Track frame offsets:
#	150
#	60397
#	119547
#	137335
#	169425
#	225087
#	270010
#	296270
#
# Disc length: 4394 seconds
#
# Revision: 2
# Processed by: cddbd v1.5.2PL0 Copyright (c) Steve Scherf et al.
# Submitted via: CDex 1.51
#
DISCID=5e112808
DTITLE=Otto Klemperer - Beeethoven Symphonies No 2 and 4
DYEAR=1985
DGENRE=Clasica
TTITLE0=Op. 36 I. Adagio molto - Allegro con brio
TTITLE1=Op. 36 II. Larghetto
TTITLE2=Op. 36 III. Scherzo (Allegro) and Trio
TTITLE3=Op. 36 IV. Allegro molto
TTITLE4=Op. 60 I. Adagio - Allegro vivace
TTITLE5=Op. 60 II. Adagio
TTITLE6=Op. 60 III. Allegro vivace - Trio (Un poco meno allegro) - Tempo I
TTITLE7=Op. 60 IV. Allegro ma non troppo
EXTD=Philharmonia Orchestra\nOtto Klemperer Conducter\nSymphonie Nr 2 in D major Op.36  from 1959\nSymphonie Nr 4 in B flat major Op. 60 from 1960\n YEAR: 1985
EXTT0=
EXTT1=
EXTT2=
EXTT3=
EXTT4=
EXTT5=
EXTT6=
EXTT7=
PLAYORDER=
